<?xml version="1.0" encoding="UTF-8" standalone="no"?>
<!DOCTYPE svg PUBLIC "-//W3C//DTD SVG 1.1//EN" "http://www.w3.org/Graphics/SVG/1.1/DTD/svg11.dtd">
<svg width="100%" height="100%" viewBox="0 0 187 60" version="1.1" xmlns="http://www.w3.org/2000/svg" xmlns:xlink="http://www.w3.org/1999/xlink" xml:space="preserve" xmlns:serif="http://www.serif.com/" style="fill-rule:evenodd;clip-rule:evenodd;stroke-linejoin:round;stroke-miterlimit:2;">
    <g id="Plan-de-travail1" serif:id="Plan de travail1" transform="matrix(0.303571,0,0,0.141176,3.03571,0)">
        <rect x="-10" y="0" width="616" height="425" style="fill:none;"/>
        <g id="logo" transform="matrix(4.72517,0,0,10.1605,-587.038,-665.486)">
            <path d="M138.644,86.74L132.128,93.404L132.128,102.754L127,102.754L127,66.642L132.128,66.642L132.128,86.848L151.571,66.642L157.447,66.642L142.17,82.871L158.515,102.754L152.532,102.754L138.644,86.74Z" style="fill:white;fill-rule:nonzero;"/>
            <path d="M195.905,99.853L197.935,95.983C200.285,97.596 203.918,98.778 207.443,98.778C212.037,98.778 213.853,97.381 213.853,95.016C213.853,88.89 196.653,94.156 196.653,83.301C196.653,78.357 201.033,75.133 207.977,75.133C211.503,75.133 215.562,76.1 217.912,77.605L215.776,81.474C213.319,79.862 210.648,79.324 207.977,79.324C203.704,79.324 201.567,80.937 201.567,83.086C201.567,89.535 218.767,84.268 218.767,94.909C218.767,99.853 214.28,102.969 207.016,102.969C202.636,103.077 198.149,101.68 195.905,99.853Z" style="fill:white;fill-rule:nonzero;"/>
            <path d="M249,86.203L249,102.754L244.299,102.754L244.299,99.1C242.697,101.572 239.599,102.969 235.326,102.969C229.13,102.969 225.284,99.637 225.284,94.908C225.284,90.502 228.061,86.955 236.18,86.955L243.979,86.955L243.979,85.988C243.979,81.796 241.522,79.432 236.715,79.432C233.51,79.432 230.198,80.614 228.061,82.334L226.031,78.572C228.809,76.315 232.869,75.025 237.249,75.025C244.834,75.132 249,78.787 249,86.203ZM244.086,94.371L244.086,90.502L236.501,90.502C231.587,90.502 230.198,92.436 230.198,94.694C230.198,97.38 232.441,99.1 236.18,99.1C239.919,99.208 242.911,97.595 244.086,94.371Z" style="fill:white;fill-rule:nonzero;"/>
            <path d="M180.095,95.554L180.095,102.862L183.193,101.035L183.193,93.727L180.095,95.554Z" style="fill:white;fill-rule:nonzero;"/>
            <path d="M188.641,86.633L175.928,79.217L168.877,75.133L161.933,87.278L162.04,98.67L174.646,106.086L175.928,105.334L175.928,94.586L181.59,84.591L187.359,87.923L187.359,98.67L188.641,97.918L188.641,86.633Z" style="fill:white;fill-rule:nonzero;"/>
        </g>
    </g>
</svg>
